<svg width="451" height="572" viewBox="0 0 451 572" fill="none" xmlns="http://www.w3.org/2000/svg">
<path fill-rule="evenodd" clip-rule="evenodd" d="M0 0H450.954V80.3404H158.99V180.766H450.954V254.411H161.881V311.319V354.837V572H101.176V508.822H52.0332V572H0V0ZM302.493 572C346.421 560.094 401.757 526.492 446.618 448.567C448.064 446.056 449.509 443.616 450.954 441.245V354.837H190.788V572H302.493ZM101.176 76.9929H52.0332V147.291H101.176V76.9929ZM52.0332 187.461H101.176V257.759H52.0332V187.461ZM101.176 297.929H52.0332V368.227H101.176V297.929ZM101.176 408.397H52.0332V478.695H101.176V408.397Z" fill="#3DB804"/>
</svg>
